<?xml version="1.0" encoding="UTF-8"?>
<svg xmlns="http://www.w3.org/2000/svg" width="259.008" height="96.288" viewBox="0 0 259.008 96.288">
<rect x="0" y="0" width="259.008" height="96.288" fill="#ffffff"/>
<g transform="translate(0 22.704) scale(12.0)" fill="#000000" stroke="#000000">
<line x1="0" y1="0" x2="21.584" y2="0" stroke-width="0.13" stroke-linecap="butt"/>
<line x1="0" y1="1" x2="21.584" y2="1" stroke-width="0.13" stroke-linecap="butt"/>
<line x1="0" y1="2" x2="21.584" y2="2" stroke-width="0.13" stroke-linecap="butt"/>
<line x1="0" y1="3" x2="21.584" y2="3" stroke-width="0.13" stroke-linecap="butt"/>
<line x1="0" y1="4" x2="21.584" y2="4" stroke-width="0.13" stroke-linecap="butt"/>
<text x="1" y="3" font-family="Bravura" font-size="4" stroke="none"></text>
<text x="4.604" y="1" font-family="Bravura" font-size="4" stroke="none"></text>
<text x="4.604" y="3" font-family="Bravura" font-size="4" stroke="none"></text>
<text x="7.404" y="1.5" font-family="Bravura" font-size="4" stroke="none"></text>
<line x1="7.464" y1="1.668" x2="7.464" y2="5" stroke-width="0.12" stroke-linecap="butt"/>
<text x="10.704" y="1" font-family="Bravura" font-size="2.88" stroke="none"></text>
<line x1="10.747" y1="1.121" x2="10.747" y2="3.52" stroke-width="0.086" stroke-linecap="butt"/>
<text x="14.004" y="0.5" font-family="Bravura" font-size="2.88" stroke="none"></text>
<line x1="14.047" y1="0.621" x2="14.047" y2="3.02" stroke-width="0.086" stroke-linecap="butt"/>
<text x="17.304" y="0" font-family="Bravura" font-size="4" stroke="none"></text>
<line x1="17.364" y1="0.168" x2="17.364" y2="3.5" stroke-width="0.12" stroke-linecap="butt"/>
<line x1="20.604" y1="0" x2="20.604" y2="4" stroke-width="0.16" stroke-linecap="butt"/>
<line x1="21.334" y1="0" x2="21.334" y2="4" stroke-width="0.5" stroke-linecap="butt"/>
</g>
</svg>
