<?xml version="1.0" encoding="UTF-8"?>
<svg xmlns="http://www.w3.org/2000/svg" width="464.448" height="103.632" viewBox="0 0 464.448 103.632">
<rect x="0" y="0" width="464.448" height="103.632" fill="#ffffff"/>
<g transform="translate(0 30.048) scale(12.0)" fill="#000000" stroke="#000000">
<line x1="0" y1="0" x2="38.704" y2="0" stroke-width="0.13" stroke-linecap="butt"/>
<line x1="0" y1="1" x2="38.704" y2="1" stroke-width="0.13" stroke-linecap="butt"/>
<line x1="0" y1="2" x2="38.704" y2="2" stroke-width="0.13" stroke-linecap="butt"/>
<line x1="0" y1="3" x2="38.704" y2="3" stroke-width="0.13" stroke-linecap="butt"/>
<line x1="0" y1="4" x2="38.704" y2="4" stroke-width="0.13" stroke-linecap="butt"/>
<text x="1" y="3" font-family="Bravura" font-size="4" stroke="none"></text>
<text x="4.604" y="1" font-family="Bravura" font-size="4" stroke="none"></text>
<text x="4.604" y="3" font-family="Bravura" font-size="4" stroke="none"></text>
<text x="7.404" y="5" font-family="Bravura" font-size="4" stroke="none"></text>
<line x1="7.004" y1="5" x2="8.984" y2="5" stroke-width="0.16" stroke-linecap="butt"/>
<line x1="8.524" y1="4.832" x2="8.524" y2="1.5" stroke-width="0.12" stroke-linecap="butt"/>
<text x="10.704" y="4.5" font-family="Bravura" font-size="4" stroke="none"></text>
<line x1="11.824" y1="4.332" x2="11.824" y2="1" stroke-width="0.12" stroke-linecap="butt"/>
<text x="14.004" y="4" font-family="Bravura" font-size="4" stroke="none"></text>
<line x1="15.124" y1="3.832" x2="15.124" y2="0.5" stroke-width="0.12" stroke-linecap="butt"/>
<text x="17.304" y="3.5" font-family="Bravura" font-size="4" stroke="none"></text>
<line x1="18.424" y1="3.332" x2="18.424" y2="0" stroke-width="0.12" stroke-linecap="butt"/>
<line x1="20.604" y1="0" x2="20.604" y2="4" stroke-width="0.16" stroke-linecap="butt"/>
<line x1="22.764" y1="2" x2="30.764" y2="2" stroke-width="0.5" stroke-linecap="butt"/>
<line x1="22.764" y1="1" x2="22.764" y2="3" stroke-width="0.16" stroke-linecap="butt"/>
<line x1="30.764" y1="1" x2="30.764" y2="3" stroke-width="0.16" stroke-linecap="butt"/>
<text x="25.388" y="-1" font-family="Bravura" font-size="4" stroke="none"></text>
<text x="26.564" y="-1" font-family="Bravura" font-size="4" stroke="none"></text>
<line x1="31.764" y1="0" x2="31.764" y2="4" stroke-width="0.16" stroke-linecap="butt"/>
<text x="32.924" y="3" font-family="Bravura" font-size="4" stroke="none"></text>
<line x1="37.724" y1="0" x2="37.724" y2="4" stroke-width="0.16" stroke-linecap="butt"/>
<line x1="38.454" y1="0" x2="38.454" y2="4" stroke-width="0.5" stroke-linecap="butt"/>
</g>
</svg>
