<?xml version="1.0" encoding="UTF-8"?>
<svg xmlns="http://www.w3.org/2000/svg" width="502.848" height="154.944" viewBox="0 0 502.848 154.944">
<rect x="0" y="0" width="502.848" height="154.944" fill="#ffffff"/>
<g transform="translate(0 70.8) scale(12.0)" fill="#000000" stroke="#000000">
<line x1="0" y1="0" x2="41.904" y2="0" stroke-width="0.13" stroke-linecap="butt"/>
<line x1="0" y1="1" x2="41.904" y2="1" stroke-width="0.13" stroke-linecap="butt"/>
<line x1="0" y1="2" x2="41.904" y2="2" stroke-width="0.13" stroke-linecap="butt"/>
<line x1="0" y1="3" x2="41.904" y2="3" stroke-width="0.13" stroke-linecap="butt"/>
<line x1="0" y1="4" x2="41.904" y2="4" stroke-width="0.13" stroke-linecap="butt"/>
<text x="1" y="3" font-family="Bravura" font-size="4" stroke="none"></text>
<text x="4.604" y="1" font-family="Bravura" font-size="4" stroke="none"></text>
<text x="4.604" y="3" font-family="Bravura" font-size="4" stroke="none"></text>
<text x="7.404" y="5" font-family="Bravura" font-size="4" stroke="none"></text>
<line x1="7.004" y1="5" x2="8.984" y2="5" stroke-width="0.16" stroke-linecap="butt"/>
<line x1="8.524" y1="4.832" x2="8.524" y2="1.5" stroke-width="0.12" stroke-linecap="butt"/>
<text x="10.704" y="4" font-family="Bravura" font-size="4" stroke="none"></text>
<line x1="11.824" y1="3.832" x2="11.824" y2="0.5" stroke-width="0.12" stroke-linecap="butt"/>
<text x="14.004" y="3" font-family="Bravura" font-size="4" stroke="none"></text>
<line x1="15.124" y1="2.832" x2="15.124" y2="-0.5" stroke-width="0.12" stroke-linecap="butt"/>
<text x="17.304" y="1.5" font-family="Bravura" font-size="4" stroke="none"></text>
<line x1="17.364" y1="1.668" x2="17.364" y2="5" stroke-width="0.12" stroke-linecap="butt"/>
<line x1="20.604" y1="0" x2="20.604" y2="4" stroke-width="0.16" stroke-linecap="butt"/>
<text x="21.764" y="-2" font-family="Bravura" font-size="4" stroke="none"></text>
<line x1="21.364" y1="-1" x2="23.344" y2="-1" stroke-width="0.16" stroke-linecap="butt"/>
<line x1="21.364" y1="-2" x2="23.344" y2="-2" stroke-width="0.16" stroke-linecap="butt"/>
<line x1="21.824" y1="-1.832" x2="21.824" y2="2" stroke-width="0.12" stroke-linecap="butt"/>
<text x="25.064" y="-2.5" font-family="Bravura" font-size="4" stroke="none"></text>
<line x1="24.664" y1="-1" x2="26.644" y2="-1" stroke-width="0.16" stroke-linecap="butt"/>
<line x1="24.664" y1="-2" x2="26.644" y2="-2" stroke-width="0.16" stroke-linecap="butt"/>
<line x1="25.124" y1="-2.332" x2="25.124" y2="2" stroke-width="0.12" stroke-linecap="butt"/>
<text x="28.364" y="-3" font-family="Bravura" font-size="4" stroke="none"></text>
<line x1="27.964" y1="-1" x2="29.944" y2="-1" stroke-width="0.16" stroke-linecap="butt"/>
<line x1="27.964" y1="-2" x2="29.944" y2="-2" stroke-width="0.16" stroke-linecap="butt"/>
<line x1="27.964" y1="-3" x2="29.944" y2="-3" stroke-width="0.16" stroke-linecap="butt"/>
<line x1="28.424" y1="-2.832" x2="28.424" y2="2" stroke-width="0.12" stroke-linecap="butt"/>
<text x="31.664" y="-3.5" font-family="Bravura" font-size="4" stroke="none"></text>
<line x1="31.264" y1="-1" x2="33.244" y2="-1" stroke-width="0.16" stroke-linecap="butt"/>
<line x1="31.264" y1="-2" x2="33.244" y2="-2" stroke-width="0.16" stroke-linecap="butt"/>
<line x1="31.264" y1="-3" x2="33.244" y2="-3" stroke-width="0.16" stroke-linecap="butt"/>
<line x1="31.724" y1="-3.332" x2="31.724" y2="2" stroke-width="0.12" stroke-linecap="butt"/>
<line x1="34.964" y1="0" x2="34.964" y2="4" stroke-width="0.16" stroke-linecap="butt"/>
<text x="36.124" y="-4" font-family="Bravura" font-size="4" stroke="none"></text>
<line x1="35.724" y1="-1" x2="38.212" y2="-1" stroke-width="0.16" stroke-linecap="butt"/>
<line x1="35.724" y1="-2" x2="38.212" y2="-2" stroke-width="0.16" stroke-linecap="butt"/>
<line x1="35.724" y1="-3" x2="38.212" y2="-3" stroke-width="0.16" stroke-linecap="butt"/>
<line x1="35.724" y1="-4" x2="38.212" y2="-4" stroke-width="0.16" stroke-linecap="butt"/>
<text x="22.664" y="-4.25" font-family="Academico, 'New York', 'Times New Roman', Times, serif" font-size="1.6" text-anchor="middle" stroke="none">8va</text>
<line x1="23.964" y1="-4.6" x2="24.464" y2="-4.6" stroke-width="0.12" stroke-linecap="butt"/>
<line x1="24.964" y1="-4.6" x2="25.464" y2="-4.6" stroke-width="0.12" stroke-linecap="butt"/>
<line x1="25.964" y1="-4.6" x2="26.464" y2="-4.6" stroke-width="0.12" stroke-linecap="butt"/>
<line x1="26.964" y1="-4.6" x2="27.464" y2="-4.6" stroke-width="0.12" stroke-linecap="butt"/>
<line x1="27.964" y1="-4.6" x2="28.464" y2="-4.6" stroke-width="0.12" stroke-linecap="butt"/>
<line x1="28.964" y1="-4.6" x2="29.464" y2="-4.6" stroke-width="0.12" stroke-linecap="butt"/>
<line x1="29.964" y1="-4.6" x2="30.464" y2="-4.6" stroke-width="0.12" stroke-linecap="butt"/>
<line x1="30.964" y1="-4.6" x2="31.464" y2="-4.6" stroke-width="0.12" stroke-linecap="butt"/>
<line x1="31.964" y1="-4.6" x2="32.464" y2="-4.6" stroke-width="0.12" stroke-linecap="butt"/>
<line x1="32.844" y1="-4.6" x2="32.844" y2="-3.85" stroke-width="0.12" stroke-linecap="butt"/>
<line x1="40.924" y1="0" x2="40.924" y2="4" stroke-width="0.16" stroke-linecap="butt"/>
<line x1="41.654" y1="0" x2="41.654" y2="4" stroke-width="0.5" stroke-linecap="butt"/>
</g>
</svg>
