<?xml version="1.0" encoding="UTF-8"?>
<svg xmlns="http://www.w3.org/2000/svg" width="711.552" height="157.871" viewBox="0 0 711.552 157.871">
<rect x="0" y="0" width="711.552" height="157.871" fill="#ffffff"/>
<g transform="translate(0 64.8) scale(12.0)" fill="#000000" stroke="#000000">
<line x1="0" y1="0" x2="59.296" y2="0" stroke-width="0.13" stroke-linecap="butt"/>
<line x1="0" y1="1" x2="59.296" y2="1" stroke-width="0.13" stroke-linecap="butt"/>
<line x1="0" y1="2" x2="59.296" y2="2" stroke-width="0.13" stroke-linecap="butt"/>
<line x1="0" y1="3" x2="59.296" y2="3" stroke-width="0.13" stroke-linecap="butt"/>
<line x1="0" y1="4" x2="59.296" y2="4" stroke-width="0.13" stroke-linecap="butt"/>
<text x="1" y="3" font-family="Bravura" font-size="4" stroke="none"></text>
<text x="4.604" y="1" font-family="Bravura" font-size="4" stroke="none"></text>
<text x="4.604" y="3" font-family="Bravura" font-size="4" stroke="none"></text>
<text x="7.404" y="1.5" font-family="Bravura" font-size="4" stroke="none"></text>
<text x="8.65" y="1.5" font-family="Bravura" font-size="4" stroke="none"></text>
<text x="10.45" y="1" font-family="Bravura" font-size="4" stroke="none"></text>
<text x="11.696" y="1" font-family="Bravura" font-size="4" stroke="none"></text>
<text x="13.496" y="0.5" font-family="Bravura" font-size="4" stroke="none"></text>
<text x="15.296" y="0" font-family="Bravura" font-size="4" stroke="none"></text>
<text x="16.542" y="0" font-family="Bravura" font-size="4" stroke="none"></text>
<text x="18.342" y="-0.5" font-family="Bravura" font-size="4" stroke="none"></text>
<text x="19.588" y="-0.5" font-family="Bravura" font-size="4" stroke="none"></text>
<text x="21.388" y="-1" font-family="Bravura" font-size="4" stroke="none"></text>
<text x="22.634" y="-1" font-family="Bravura" font-size="4" stroke="none"></text>
<line x1="22.234" y1="-1" x2="24.214" y2="-1" stroke-width="0.16" stroke-linecap="butt"/>
<text x="24.434" y="-1.5" font-family="Bravura" font-size="4" stroke="none"></text>
<line x1="24.034" y1="-1" x2="26.014" y2="-1" stroke-width="0.16" stroke-linecap="butt"/>
<text x="26.234" y="-2" font-family="Bravura" font-size="4" stroke="none"></text>
<text x="27.48" y="-2" font-family="Bravura" font-size="4" stroke="none"></text>
<line x1="27.08" y1="-1" x2="29.06" y2="-1" stroke-width="0.16" stroke-linecap="butt"/>
<line x1="27.08" y1="-2" x2="29.06" y2="-2" stroke-width="0.16" stroke-linecap="butt"/>
<line x1="8.71" y1="1.668" x2="8.71" y2="5" stroke-width="0.12" stroke-linecap="butt"/>
<line x1="11.756" y1="1.168" x2="11.756" y2="4.711" stroke-width="0.12" stroke-linecap="butt"/>
<line x1="13.556" y1="0.668" x2="13.556" y2="4.539" stroke-width="0.12" stroke-linecap="butt"/>
<line x1="16.602" y1="0.168" x2="16.602" y2="4.25" stroke-width="0.12" stroke-linecap="butt"/>
<polygon points="8.65,4.756 16.662,3.994 16.662,4.494 8.65,5.256" stroke="none"/>
<polygon points="8.65,4.006 16.662,3.244 16.662,3.744 8.65,4.506" stroke="none"/>
<line x1="19.648" y1="-0.332" x2="19.648" y2="3" stroke-width="0.12" stroke-linecap="butt"/>
<line x1="22.694" y1="-0.832" x2="22.694" y2="2.711" stroke-width="0.12" stroke-linecap="butt"/>
<line x1="24.494" y1="-1.332" x2="24.494" y2="2.539" stroke-width="0.12" stroke-linecap="butt"/>
<line x1="27.54" y1="-1.832" x2="27.54" y2="2.25" stroke-width="0.12" stroke-linecap="butt"/>
<polygon points="19.588,2.756 27.6,1.994 27.6,2.494 19.588,3.256" stroke="none"/>
<polygon points="19.588,2.006 27.6,1.244 27.6,1.744 19.588,2.506" stroke="none"/>
<text x="9.072" y="0.75" font-family="Bravura" font-size="4" stroke="none"></text>
<text x="12.118" y="0.25" font-family="Bravura" font-size="4" stroke="none"></text>
<text x="13.918" y="-0.25" font-family="Bravura" font-size="4" stroke="none"></text>
<text x="16.964" y="-0.75" font-family="Bravura" font-size="4" stroke="none"></text>
<text x="20.01" y="-1.25" font-family="Bravura" font-size="4" stroke="none"></text>
<text x="23.056" y="-1.75" font-family="Bravura" font-size="4" stroke="none"></text>
<text x="24.856" y="-2.25" font-family="Bravura" font-size="4" stroke="none"></text>
<text x="27.902" y="-2.75" font-family="Bravura" font-size="4" stroke="none"></text>
<line x1="29.28" y1="0" x2="29.28" y2="4" stroke-width="0.16" stroke-linecap="butt"/>
<text x="30.44" y="3.5" font-family="Bravura" font-size="4" stroke="none"></text>
<text x="31.686" y="3.5" font-family="Bravura" font-size="4" stroke="none"></text>
<text x="34.236" y="2.5" font-family="Bravura" font-size="4" stroke="none"></text>
<text x="35.482" y="2.5" font-family="Bravura" font-size="4" stroke="none"></text>
<text x="38.032" y="1.5" font-family="Bravura" font-size="4" stroke="none"></text>
<text x="39.278" y="1.5" font-family="Bravura" font-size="4" stroke="none"></text>
<text x="41.828" y="0.5" font-family="Bravura" font-size="4" stroke="none"></text>
<text x="44.378" y="-0.5" font-family="Bravura" font-size="4" stroke="none"></text>
<text x="45.624" y="-0.5" font-family="Bravura" font-size="4" stroke="none"></text>
<text x="48.174" y="-1.5" font-family="Bravura" font-size="4" stroke="none"></text>
<line x1="47.774" y1="-1" x2="49.754" y2="-1" stroke-width="0.16" stroke-linecap="butt"/>
<text x="50.724" y="-2.5" font-family="Bravura" font-size="4" stroke="none"></text>
<text x="51.97" y="-2.5" font-family="Bravura" font-size="4" stroke="none"></text>
<line x1="51.57" y1="-1" x2="53.55" y2="-1" stroke-width="0.16" stroke-linecap="butt"/>
<line x1="51.57" y1="-2" x2="53.55" y2="-2" stroke-width="0.16" stroke-linecap="butt"/>
<text x="54.52" y="-3.5" font-family="Bravura" font-size="4" stroke="none"></text>
<text x="55.766" y="-3.5" font-family="Bravura" font-size="4" stroke="none"></text>
<line x1="55.366" y1="-1" x2="57.346" y2="-1" stroke-width="0.16" stroke-linecap="butt"/>
<line x1="55.366" y1="-2" x2="57.346" y2="-2" stroke-width="0.16" stroke-linecap="butt"/>
<line x1="55.366" y1="-3" x2="57.346" y2="-3" stroke-width="0.16" stroke-linecap="butt"/>
<line x1="31.746" y1="3.668" x2="31.746" y2="7" stroke-width="0.12" stroke-linecap="butt"/>
<line x1="35.542" y1="2.668" x2="35.542" y2="6.626" stroke-width="0.12" stroke-linecap="butt"/>
<line x1="39.338" y1="1.668" x2="39.338" y2="6.251" stroke-width="0.12" stroke-linecap="butt"/>
<line x1="41.888" y1="0.668" x2="41.888" y2="6" stroke-width="0.12" stroke-linecap="butt"/>
<polygon points="31.686,6.756 41.948,5.744 41.948,6.244 31.686,7.256" stroke="none"/>
<line x1="45.684" y1="-0.332" x2="45.684" y2="3.006" stroke-width="0.12" stroke-linecap="butt"/>
<line x1="48.234" y1="-1.332" x2="48.234" y2="2.754" stroke-width="0.12" stroke-linecap="butt"/>
<line x1="52.03" y1="-2.332" x2="52.03" y2="2.38" stroke-width="0.12" stroke-linecap="butt"/>
<line x1="55.826" y1="-3.332" x2="55.826" y2="2.006" stroke-width="0.12" stroke-linecap="butt"/>
<polygon points="45.624,2.762 55.886,1.75 55.886,2.25 45.624,3.262" stroke="none"/>
<line x1="58.316" y1="0" x2="58.316" y2="4" stroke-width="0.16" stroke-linecap="butt"/>
<line x1="59.046" y1="0" x2="59.046" y2="4" stroke-width="0.5" stroke-linecap="butt"/>
</g>
</svg>
